<svg xmlns="http://www.w3.org/2000/svg" viewBox="-0.5 -0.5 24 24" id="Entertainment-Events-Hobbies-Game-Machines-Arcade-1--Streamline-Pixel.svg" height="24" width="24"><desc>Entertainment Events Hobbies Game Machines Arcade 1 Streamline Icon: https://streamlinehq.com</desc><title>entertainment-events-hobbies-game-machines-arcade-1</title><g><path d="M21.9003125 4.3843749999999995H23V23h-1.0996875Z" fill="#000000" stroke-width="1"></path><path d="M20.8078125 3.2846875000000004h1.0925V4.3843749999999995h-1.0925Z" fill="#000000" stroke-width="1"></path><path d="M19.708125000000003 2.1921874999999997h1.0996875v1.0925h-1.0996875Z" fill="#000000" stroke-width="1"></path><path d="M18.615624999999998 1.0925h1.0925v1.0996875H18.615624999999998Z" fill="#000000" stroke-width="1"></path><path d="M2.185 0v4.3843749999999995h1.0996875v1.0925h1.0925v9.854062500000001H3.2846875000000004v1.0996875H2.185v1.0925H1.0925v1.0925h14.2384375V23h1.0925v-5.476875h1.0996875v-1.0925h1.0925v-1.0996875h1.0925V5.476875H18.615624999999998V4.3843749999999995h-1.0925V1.0925h1.0925V0Zm5.476875 1.0925h8.7615625v2.1921874999999997H7.661875Zm-2.1921874999999997 0h1.0996875v2.1921874999999997H5.4696875ZM3.2846875000000004 3.2846875000000004V1.0925h1.0925v2.1921874999999997Zm3.2846875000000004 13.145937499999999H5.4696875v1.0925H4.3771875v-1.0925h1.0925v-1.0996875h1.0996875Zm3.2846875000000004 0h-1.0925v1.0925h-1.0996875v-1.0925h1.0996875v-1.0996875h1.0925Zm5.476875 1.0925h-3.2846875000000004v-1.0925h3.2846875000000004Zm1.0925 -3.2846875000000004H7.661875v-6.569375000000001h8.7615625Zm1.0996875 -7.6690625H5.4696875V5.476875h12.0534375Z" fill="#000000" stroke-width="1"></path><path d="M14.231250000000001 10.95375h1.0996875v1.0925H14.231250000000001Z" fill="#000000" stroke-width="1"></path><path d="M13.138750000000002 8.7615625h1.0925v1.0925h-1.0925Z" fill="#000000" stroke-width="1"></path><path d="m14.231250000000001 23 0 -2.1921874999999997 -3.2846875000000004 0 0 2.1921874999999997 1.0996875 0 0 -1.0925 1.0925 0 0 1.0925 1.0925 0z" fill="#000000" stroke-width="1"></path><path d="M9.854062500000001 12.04625h4.3771875v1.0996875h-4.3771875Z" fill="#000000" stroke-width="1"></path><path d="M9.854062500000001 8.7615625h1.0925v1.0925h-1.0925Z" fill="#000000" stroke-width="1"></path><path d="M8.7615625 10.95375h1.0925v1.0925h-1.0925Z" fill="#000000" stroke-width="1"></path><path d="M0 18.615624999999998h1.0925V23H0Z" fill="#000000" stroke-width="1"></path></g></svg>