<svg xmlns="http://www.w3.org/2000/svg" viewBox="-0.5 -0.5 24 24" id="Food-Drink-Coffee--Streamline-Pixel.svg" height="24" width="24"><desc>Food Drink Coffee Streamline Icon: https://streamlinehq.com</desc><title>food-drink-coffee</title><g><path d="M21.3540625 10.95375h1.0996875v3.2846875000000004h-1.0996875Z" fill="#000000" stroke-width="1"></path><path d="M20.2615625 14.2384375h1.0925v1.0925h-1.0925Z" fill="#000000" stroke-width="1"></path><path d="M20.2615625 9.86125h1.0925v1.0925h-1.0925Z" fill="#000000" stroke-width="1"></path><path d="M19.169062500000003 18.6228125h1.0925v1.0925h-1.0925Z" fill="#000000" stroke-width="1"></path><path d="M19.169062500000003 12.04625h1.0925v1.0996875h-1.0925Z" fill="#000000" stroke-width="1"></path><path d="M16.976875 8.7615625h3.2846875000000004v1.0996875h-3.2846875000000004Z" fill="#000000" stroke-width="1"></path><path d="M18.069375 19.7153125h1.0996875v1.0925h-1.0996875Z" fill="#000000" stroke-width="1"></path><path d="M18.069375 17.523125h1.0996875v1.0996875h-1.0996875Z" fill="#000000" stroke-width="1"></path><path d="m16.976875 15.3309375 0 1.0996875 -1.0996875 0 0 1.0925 2.1921874999999997 0 0 -1.0925 2.1921874999999997 0 0 -1.0996875 -3.2846875000000004 0z" fill="#000000" stroke-width="1"></path><path d="m16.976875 10.95375 0 3.2846875000000004 2.1921874999999997 0 0 -1.0925 -1.0996875 0 0 -1.0996875 1.0996875 0 0 -1.0925 -2.1921874999999997 0z" fill="#000000" stroke-width="1"></path><path d="M15.8771875 20.8078125h2.1921874999999997v1.0996875h-2.1921874999999997Z" fill="#000000" stroke-width="1"></path><path d="M15.8771875 7.6690625h1.0996875v1.0925h-1.0996875Z" fill="#000000" stroke-width="1"></path><path d="M13.692187500000001 17.523125h2.185v1.0996875h-2.185Z" fill="#000000" stroke-width="1"></path><path d="M12.5925 6.569375000000001h3.2846875000000004v1.0996875h-3.2846875000000004Z" fill="#000000" stroke-width="1"></path><path d="M4.930625 21.9075h10.9465625V23H4.930625Z" fill="#000000" stroke-width="1"></path><path d="m6.023125 8.7615625 0 1.0996875 -1.0925 0 0 1.0925 1.0925 0 0 1.0925 8.7615625 0 0 -1.0925 1.0925 0 0 -1.0925 -1.0925 0 0 -1.0996875 -8.7615625 0z" fill="#000000" stroke-width="1"></path><path d="M13.692187500000001 1.0925h1.0925v2.1921874999999997h-1.0925Z" fill="#000000" stroke-width="1"></path><path d="M11.5 0h2.1921874999999997v1.0925H11.5Z" fill="#000000" stroke-width="1"></path><path d="M12.5925 3.2846875000000004h1.0996875V4.3843749999999995h-1.0996875Z" fill="#000000" stroke-width="1"></path><path d="M10.4003125 1.0925H11.5v1.0996875h-1.0996875Z" fill="#000000" stroke-width="1"></path><path d="M10.4003125 5.476875H11.5v2.1921874999999997h-1.0996875Z" fill="#000000" stroke-width="1"></path><path d="M8.2153125 0h2.185v1.0925h-2.185Z" fill="#000000" stroke-width="1"></path><path d="M9.307812499999999 4.3843749999999995h1.0925v1.0925h-1.0925Z" fill="#000000" stroke-width="1"></path><path d="M8.2153125 3.2846875000000004h1.0925V4.3843749999999995h-1.0925Z" fill="#000000" stroke-width="1"></path><path d="M7.1156250000000005 18.6228125h6.5765625000000005v1.0925H7.1156250000000005Z" fill="#000000" stroke-width="1"></path><path d="M7.1156250000000005 1.0925h1.0996875v2.1921874999999997H7.1156250000000005Z" fill="#000000" stroke-width="1"></path><path d="M4.930625 6.569375000000001h4.3771875v1.0996875H4.930625Z" fill="#000000" stroke-width="1"></path><path d="M4.930625 17.523125H7.1156250000000005v1.0996875H4.930625Z" fill="#000000" stroke-width="1"></path><path d="M2.7384375 20.8078125h2.1921874999999997v1.0996875H2.7384375Z" fill="#000000" stroke-width="1"></path><path d="m4.930625 15.3309375 -1.0996875 0 0 1.0996875 -1.0925 0 0 1.0925 2.1921874999999997 0 0 -2.1921874999999997z" fill="#000000" stroke-width="1"></path><path d="M3.8309375 7.6690625h1.0996875v1.0925H3.8309375Z" fill="#000000" stroke-width="1"></path><path d="M2.7384375 8.7615625h1.0925v6.569375000000001H2.7384375Z" fill="#000000" stroke-width="1"></path><path d="M1.63875 19.7153125h1.0996875v1.0925H1.63875Z" fill="#000000" stroke-width="1"></path><path d="M1.63875 17.523125h1.0996875v1.0996875H1.63875Z" fill="#000000" stroke-width="1"></path><path d="M0.54625 18.6228125h1.0925v1.0925H0.54625Z" fill="#000000" stroke-width="1"></path></g></svg>