<svg xmlns="http://www.w3.org/2000/svg" viewBox="-0.5 -0.5 24 24" id="Coding-Apps-Websites-Database--Streamline-Pixel.svg" height="24" width="24"><desc>Coding Apps Websites Database Streamline Icon: https://streamlinehq.com</desc><title>coding-apps-websites-database</title><g><path d="m20.2615625 19.7153125 1.0996875 0 0 -1.0925 1.0925 0 0 -14.2384375 -1.0925 0 0 1.0925 -1.0996875 0 0 1.0925 -3.2846875000000004 0 0 1.0996875 -10.95375 0 0 1.0925 9.86125 0 0 5.476875 1.0925 0 0 -1.0925 3.2846875000000004 0 0 -1.0996875 1.0996875 0 0 1.0996875 -1.0996875 0 0 1.0925 -3.2846875000000004 0 0 1.0925 -1.0925 0 0 5.476875 -9.86125 0 0 1.0996875 10.95375 0 0 -1.0996875 3.2846875000000004 0 0 -1.0925z" fill="#000000" stroke-width="1"></path><path d="M19.169062500000003 3.2846875000000004h2.1921874999999997V4.3843749999999995h-2.1921874999999997Z" fill="#000000" stroke-width="1"></path><path d="M15.884375 2.1921874999999997h3.2846875000000004v1.0925H15.884375Z" fill="#000000" stroke-width="1"></path><path d="M6.023125 14.2384375H15.884375v1.0925H6.023125Z" fill="#000000" stroke-width="1"></path><path d="M7.1228125 17.523125h3.2846875000000004v1.0996875H7.1228125Z" fill="#000000" stroke-width="1"></path><path d="M7.1228125 10.95375h3.2846875000000004v1.0925H7.1228125Z" fill="#000000" stroke-width="1"></path><path d="M7.1228125 1.0925H15.884375v1.0996875H7.1228125Z" fill="#000000" stroke-width="1"></path><path d="M2.7384375 19.7153125h3.2846875000000004v1.0925H2.7384375Z" fill="#000000" stroke-width="1"></path><path d="M2.7384375 13.145937499999999h3.2846875000000004v1.0925H2.7384375Z" fill="#000000" stroke-width="1"></path><path d="M2.7384375 6.569375000000001h3.2846875000000004v1.0996875H2.7384375Z" fill="#000000" stroke-width="1"></path><path d="M3.8309375 2.1921874999999997h3.291875v1.0925H3.8309375Z" fill="#000000" stroke-width="1"></path><path d="M2.7384375 15.3309375h2.1921874999999997v2.1921874999999997H2.7384375Z" fill="#000000" stroke-width="1"></path><path d="M2.7384375 8.7615625h2.1921874999999997v2.1921874999999997H2.7384375Z" fill="#000000" stroke-width="1"></path><path d="M1.6459375 3.2846875000000004h2.185V4.3843749999999995H1.6459375Z" fill="#000000" stroke-width="1"></path><path d="M1.6459375 18.6228125h1.0925v1.0925H1.6459375Z" fill="#000000" stroke-width="1"></path><path d="m1.6459375 13.145937499999999 1.0925 0 0 -1.0996875 -1.0925 0 0 -5.476875 1.0925 0 0 -1.0925 -1.0925 0 0 -1.0925 -1.0996875 0 0 14.2384375 1.0996875 0 0 -5.476875z" fill="#000000" stroke-width="1"></path></g></svg>