<svg xmlns="http://www.w3.org/2000/svg" viewBox="-0.5 -0.5 24 24" id="Computers-Devices-Electronics-Memory--Streamline-Pixel.svg" height="24" width="24"><desc>Computers Devices Electronics Memory Streamline Icon: https://streamlinehq.com</desc><title>computers-devices-electronics-memory</title><g><path d="M18.06578125 8.7615625v4.3843749999999995h2.1921874999999997v8.7615625h1.0996875V1.0925h-1.0996875v7.6690625Zm2.1921874999999997 2.1921874999999997h-1.0925v-1.0996875h1.0925Z" fill="#000000" stroke-width="1"></path><path d="M2.73484375 21.9075h17.523125V23H2.73484375Z" fill="#000000" stroke-width="1"></path><path d="M3.83453125 19.7153125h15.3309375v1.0925H3.83453125Z" fill="#000000" stroke-width="1"></path><path d="M13.68859375 13.145937499999999h1.0925v1.0925h-1.0925Z" fill="#000000" stroke-width="1"></path><path d="M9.30421875 15.3309375h4.3843749999999995v1.0996875h-4.3843749999999995Z" fill="#000000" stroke-width="1"></path><path d="M8.211718750000001 13.145937499999999h1.0925v1.0925h-1.0925Z" fill="#000000" stroke-width="1"></path><path d="M7.1156250000000005 5.476875H6.01953125v1.0925h13.145937499999999V1.0925h1.0925V0H6.01953125v1.0925H7.1156250000000005Zm9.854062500000001 -3.2846875000000004h1.0925v3.2846875000000004h-1.0925Zm-2.1921874999999997 0h1.106875v3.2846875000000004h-1.0996875Zm-2.185 0h1.0925v3.2846875000000004h-1.0925Zm-2.1921874999999997 0H11.5v3.2846875000000004h-1.0925Zm-2.1921874999999997 0h1.0925v3.2846875000000004h-1.0925Z" fill="#000000" stroke-width="1"></path><path d="M4.927031250000001 1.0925h1.0925v1.0996875h-1.0925Z" fill="#000000" stroke-width="1"></path><path d="M3.83453125 2.1921874999999997h1.0925v1.0925h-1.0925Z" fill="#000000" stroke-width="1"></path><path d="M2.73484375 3.2846875000000004h1.0996875V4.3843749999999995h-1.0996875Z" fill="#000000" stroke-width="1"></path><path d="m2.73484375 13.145937499999999 1.0996875 0 0 -4.3843749999999995 -1.0996875 0 0 -4.3771875 -1.0925 0 0 17.523125 1.0925 0 0 -8.7615625z" fill="#000000" stroke-width="1"></path></g></svg>