<svg xmlns="http://www.w3.org/2000/svg" viewBox="-0.5 -0.5 24 24" id="Internet-Network-Www--Streamline-Pixel.svg" height="24" width="24"><desc>Internet Network Www Streamline Icon: https://streamlinehq.com</desc><title>internet-network-www</title><g><path d="M21.9003125 6.569375000000001h-1.0925v1.0996875H18.615624999999998V6.569375000000001h-1.0925v1.0996875H5.476875V6.569375000000001H4.3771875v1.0996875H2.1921874999999997V6.569375000000001H1.0925v2.1921874999999997H0v5.476875h1.0925v2.1921874999999997h1.0996875v-1.0996875h2.185v1.0996875h1.0996875v-1.0996875h12.04625v1.0996875h1.0925v-1.0996875h2.1921874999999997v1.0996875h1.0925v-2.1921874999999997H23v-5.476875h-1.0996875Zm-14.2384375 6.569375000000001H6.569375000000001v1.0996875H5.476875v-1.0996875H4.3771875v1.0996875H3.2846875000000004v-1.0996875H2.1921874999999997v-3.2846875000000004h1.0925v3.2846875000000004h1.0925v-2.185h1.0996875v2.185h1.0925v-3.2846875000000004h1.0925Zm6.5765625000000005 0h-1.0996875v1.0996875h-1.0925v-1.0996875h-1.0925v1.0996875h-1.0996875v-1.0996875h-1.0925v-3.2846875000000004h1.0925v3.2846875000000004h1.0996875v-2.185h1.0925v2.185h1.0925v-3.2846875000000004h1.0996875Zm6.569375000000001 0h-1.0925v1.0996875H18.615624999999998v-1.0996875h-1.0925v1.0996875h-1.0996875v-1.0996875h-1.0925v-3.2846875000000004h1.0925v3.2846875000000004h1.0996875v-2.185h1.0925v2.185h1.0996875v-3.2846875000000004h1.0925Z" fill="#000000" stroke-width="1"></path><path d="M19.7153125 16.430625h1.0925v2.185h-1.0925Z" fill="#000000" stroke-width="1"></path><path d="M19.7153125 4.3771875h1.0925v2.1921874999999997h-1.0925Z" fill="#000000" stroke-width="1"></path><path d="M18.615624999999998 18.615624999999998h1.0996875v1.0996875H18.615624999999998Z" fill="#000000" stroke-width="1"></path><path d="M18.615624999999998 3.2846875000000004h1.0996875v1.0925H18.615624999999998Z" fill="#000000" stroke-width="1"></path><path d="m18.615624999999998 5.476875 0 -1.0996875 -3.2846875000000004 0 0 -1.0925 -1.0925 0 0 2.1921874999999997 2.185 0 0 1.0925 1.0996875 0 0 -1.0925 1.0925 0z" fill="#000000" stroke-width="1"></path><path d="M16.423437500000002 19.7153125h2.1921874999999997v1.0925h-2.1921874999999997Z" fill="#000000" stroke-width="1"></path><path d="m16.423437500000002 17.523125 -2.185 0 0 2.1921874999999997 1.0925 0 0 -1.0996875 3.2846875000000004 0 0 -1.0925 -1.0925 0 0 -1.0925 -1.0996875 0 0 1.0925z" fill="#000000" stroke-width="1"></path><path d="M16.423437500000002 2.1921874999999997h2.1921874999999997v1.0925h-2.1921874999999997Z" fill="#000000" stroke-width="1"></path><path d="M14.2384375 20.8078125h2.185v1.0996875h-2.185Z" fill="#000000" stroke-width="1"></path><path d="M14.2384375 1.0925h2.185v1.0996875h-2.185Z" fill="#000000" stroke-width="1"></path><path d="M13.138750000000002 19.7153125h1.0996875v1.0925h-1.0996875Z" fill="#000000" stroke-width="1"></path><path d="M13.138750000000002 2.1921874999999997h1.0996875v1.0925h-1.0996875Z" fill="#000000" stroke-width="1"></path><path d="m13.138750000000002 20.8078125 -1.0925 0 0 1.0996875 -1.0925 0 0 -1.0996875 -1.0996875 0 0 1.0996875 -1.0925 0 0 1.0925 5.476875 0 0 -1.0925 -1.0996875 0 0 -1.0996875z" fill="#000000" stroke-width="1"></path><path d="M8.7615625 5.476875h5.476875v1.0925h-5.476875Z" fill="#000000" stroke-width="1"></path><path d="M8.7615625 16.430625h5.476875v1.0925h-5.476875Z" fill="#000000" stroke-width="1"></path><path d="m9.854062500000001 2.1921874999999997 1.0996875 0 0 -1.0996875 1.0925 0 0 1.0996875 1.0925 0 0 -1.0996875 1.0996875 0 0 -1.0925 -5.476875 0 0 1.0925 1.0925 0 0 1.0996875z" fill="#000000" stroke-width="1"></path><path d="M8.7615625 19.7153125h1.0925v1.0925h-1.0925Z" fill="#000000" stroke-width="1"></path><path d="M8.7615625 2.1921874999999997h1.0925v1.0925h-1.0925Z" fill="#000000" stroke-width="1"></path><path d="M6.569375000000001 20.8078125h2.1921874999999997v1.0996875H6.569375000000001Z" fill="#000000" stroke-width="1"></path><path d="M6.569375000000001 1.0925h2.1921874999999997v1.0996875H6.569375000000001Z" fill="#000000" stroke-width="1"></path><path d="M4.3771875 19.7153125h2.1921874999999997v1.0925H4.3771875Z" fill="#000000" stroke-width="1"></path><path d="m6.569375000000001 5.476875 2.1921874999999997 0 0 -2.1921874999999997 -1.0996875 0 0 1.0925 -3.2846875000000004 0 0 1.0996875 1.0996875 0 0 1.0925 1.0925 0 0 -1.0925z" fill="#000000" stroke-width="1"></path><path d="M4.3771875 2.1921874999999997h2.1921874999999997v1.0925H4.3771875Z" fill="#000000" stroke-width="1"></path><path d="m4.3771875 17.523125 0 1.0925 3.2846875000000004 0 0 1.0996875 1.0996875 0 0 -2.1921874999999997 -2.1921874999999997 0 0 -1.0925 -1.0925 0 0 1.0925 -1.0996875 0z" fill="#000000" stroke-width="1"></path><path d="M3.2846875000000004 18.615624999999998h1.0925v1.0996875H3.2846875000000004Z" fill="#000000" stroke-width="1"></path><path d="M3.2846875000000004 3.2846875000000004h1.0925v1.0925H3.2846875000000004Z" fill="#000000" stroke-width="1"></path><path d="M2.1921874999999997 16.430625h1.0925v2.185H2.1921874999999997Z" fill="#000000" stroke-width="1"></path><path d="M2.1921874999999997 4.3771875h1.0925v2.1921874999999997H2.1921874999999997Z" fill="#000000" stroke-width="1"></path></g></svg>